<?xml version="1.0" encoding="UTF-8"?><svg id="Layer_2" xmlns="http://www.w3.org/2000/svg" viewBox="0 0 694.7 589"><defs><style>.cls-1{fill:#333;}</style></defs><g id="Layer_1-2"><g><path class="cls-1" d="M216.88,429.66c.31,31.59,3.93,63.94-3.22,94.95-4.47,19.36-.03,47.76-8.05,56.09-5.04,5.23-19.49,2.32-25.7,2.32-7.22,0-16.84,5.24-18.68-3.34-4.25-17.76-6.74-36.83-3.12-54.87,2.36-11.4,2.74-23.28,2.37-35.43,1.16-15.04,1.82-29.7,2.4-44.72,.88-12.76,2.68-25.35,5.14-37.86,.12-12.78-2.11-25.55,.82-37.92,.97-21.05-1.51-42.26,2.29-63.13,3.62-11.82,5.13-4.26,4.5-20.98,1.82-6.26,11.52-1.01,15.87-.38,3.92,1.35,7.73,.45,11.53,.35,4.23,1.42,8.39,3.09,12.68,4.32,44.06,6.97,111.43,2.68,122.28,58.56,3.11,15.6-9.84,34.87-22.39,43.19-2.9,3.13-15.42,5.99-9.49,11.3,26.24,12.26,37.41,32.69,39.86,61.02,3.54,18.36,8.23,36.32,9.61,54.7-2.18,17.97,5.63,35.95,1.99,54.27-3.33,10.18-11.69,8.26-16.13,9.14-5.11,1.02-12.06,1.42-17.05,2.47-5.72,1.2-9.48,6.73-15.85,4.93-6.01-.19-12.85-1.22-16.46-6.87-1.68-3.37-3.89-5.86-4.52-10.78-3.83-29.96-5.7-61.99-9.52-92.83-.18-21.44-6.81-60.77-34.84-57.92-7.22,1.66-29.39-2.97-26.31,9.41Zm28.06-68.5l.18,.8c10.84-1.87,32.86-14.39,27.95-27.47-6.16-5.67-16.77-5.33-24.81-7.05-6.7,.09-32.28-7.91-31.44,2.45-1.85,10.38-1.57,21.01-1.53,31.54-2.09,8.63,24.67,.21,29.65-.26Z"/><path class="cls-1" d="M4.74,259.98c4.87-20.56-3.1-41.3-2.01-62.16,.83-36.14,1.1-72.41,.46-108.39-.39-17.99-.72-35.75-2.84-53.64-2.14-5.88,5.68-13.72,10.99-12.39,.9,.04,2.03,.38,2.66-.03,4-2.6,8.2-.98,12.35-.91,23.53-2.63,47.57-4.52,69.24,7.58,20.13,8.47,42.1,16.29,56.35,33.63,19.03,21.99,29.59,50.14,37.68,77.35,.43,32.87-14.08,68.38-41.99,86.71-11.8,6.27-23.13,17.23-36.25,19.24-17.03,4.92-32.45,13.41-49.93,17.42-7.25,3.07-14.93,2.44-22.45,2.86-4.1,2.64-8.64,1.79-13.02,1.56-2.19-3.65-6.41-1.1-9.2-2.99-5.65,.39-9.58-2.48-12.07-5.84Zm46.23-44.41c14.41,2.66,29.09-3.79,42.34-9.32,6.31-.78,9.43-5.88,13.9-9.71,3.96-1.62,4.55-6.53,8.65-7.69,18.14-17.75,16.72-36.05,17.44-59.36,1.16-14.1-3.72-27.65-11.45-39.19-13.2-29.76-50.63-27.18-78.09-27.32-2.26-.12-2.97,.64-2.83,2.58,1.68,22.26,3.51,44.48,4.76,66.77,3.28,28.55,.59,57.53,3.4,85.55l1.87-2.3Z"/><path class="cls-1" d="M436.27,4.26c18.32-1.76,44.85-12.48,54.89,8.77,.62,15.85-5.34,31.87-6.15,47.91-1.97,15.29-.19,31.37-7.41,45.36-.45,26.87-.82,53.03-3.74,79.81-.93,10.78-.03,21.74-2.57,32.33-.36,8.49,12.9,4.29,17.99,3.41,6.75-3.52,14.56,3.15,20.44-.86,7.44,.32,15.19,4.83,23.16,4.94,8.16,1.79,17.49,3.89,22.66,11.15,2.34,6.55,7.25,15.25,2.67,21.68-7.31,5.82-18.18,5.08-27,7.2-14.58,.12-24.78,13-39.25,12.08-16.09,.24-32.39-4.11-47.89,.12-19.26,9.11-31.36,7.37-36.67-14.92-5.14-8.63,.65-18.78,.49-28.1-.7-9.25,3.07-16.98,3.38-25.93,10.31-62.15,10.26-124.89,17.84-187.41,.22-7.96-7.03-20.24,7.16-17.52Z"/><path class="cls-1" d="M67.67,409.75c46.88-20.38,89.6,25.66,76.75,72.25-6.2,12.56-5.77,29.58-18.52,37.89-4.92,4.75-8.1,10.68-15.4,12.31-12.81,6.99-26.16,2.63-39.75,2.67-6.62,.85-12.17-3.55-17.67-6.45-5.28-.68-8.82,4.26-11.11-2.84-4.94,10.81-5.72,13.9-16.36,6.05-8.43-1.42-12.55-8.08-14.96-15.91-.04-31.5,4.79-63.28,3.75-95.03,2.15-31.58,9.14-64.19-5.94-93.85-1.85-3.36,3.05-4.51,3.58-7.47,2.42-7.53,12.01-3.91,17.77-6.16,8.47-2.09,15.07,6.18,22.03,9.81,22.76,19.06,10.99,59.94,15.83,86.75Zm15.65,70.53c7.12-.49,11.56-3.77,13.9-10.28,.76-2.16,4.66-5.04,1.87-7.16-8.59-6.86-19.39-5.77-29.48-7.88-.33-.11-1.43,.82-1.5,1.35-.08,7.76-2.74,18.11,1.27,24.72,3.7,2.82,11.9,2.37,13.94-.74Z"/><path class="cls-1" d="M640.52,171.21c-14.03,15.59-8.64,69.35-12.42,91.41-.37,7.79-1.61,16.68-1.45,24.46,1.5,3.71-1.64,4.33-3.77,6.77-8.79-6.93-7.11,8.38-14.85,8.28-7.88,.99-27.41-4.97-27.85-12.89-.97-17.29-.89-22.19-.64-37.46,.39-23.98,2.67-47.56-.43-71.23-6.26-15.47-25.64-22.53-35.47-36.24-10.04-13.53-27.93-19.05-33.34-36.04-7.88-13.51,22.1-8.09,28.89-8.43,10.73,1.4,13.06-8.6,24.66,1.55,39.47,22.77,23.27,36.12,59.68-2.85,13.92-12.3,27.82-1.81,43.81-3.7,6.69,.14,13.37,.95,20.01-.13,5.61-.76,6.82,3.07,7.28,7.31,1.81,16.84-27.5,23.1-34.57,37.25"/><path class="cls-1" d="M549.55,405.06c14.23-17.39,4.58-24.9,11.84-26.54,10.23-3.13,19.58-10.72,30.76-8.53,10.74,.44,6.09,10.82,5.94,18.09-.95,18.39,.37,36.46,2.96,54.76,9.16-7.17,7.51-20.3,12.28-30.14,6.53-23.08,21.3-43.49,22.8-67.29,.85-2.71,3.72-3.07,5.66-1,7.16,7.33,16.47-1.53,24.89,2.13,4.35,1.54,5.38,3.3,3.41,7.4-6.73,13.99-14.17,27.91-17.86,43.07-11.87,30.79-16.87,63.71-28.51,94.64-2.43,46.5-20.33,27.67-38.66,1.64-2.2-7.11-8.32-65.11-15.89-33.85-4.37,15.14-10.45,29.93-9.38,45.89-.2,20.28-21.01,7.42-26.51-3.3-5.91-6.6-8.26-15.34-15-21.15-.7-.6-.98-2.62-.52-3.5,2.45-4.74,.62-9.17-.21-13.85-10.05-33.19-4.87-71.19-23.45-101.31-1.6-17.56,27.81-8.44,35.6-1.47,13.19,11.24,12.98,31.94,19.85,44.29Z"/><path class="cls-1" d="M432.76,377.11c18.87,.31,41.04,5.75,48.76,24.59,3.94,10.05,7.3,20.31,11.07,30.43,2.28,5.19,7.68,11.01,2.26,16.22-11.74,9.25-29.22,5.3-42.45,12.86-11.61,5.75-23.47,4.77-35.86,5.05-4.31,4.13-3.52,12.3-5.3,17.92-2.2,7.97-.67,17.35,9.54,18.77,10.66,.76,22.18,1.71,31.66-4.45,3-2.2,6.28-1.18,9.36,.01,10.59,4.18,20.55-8.23,31.75-2.49,9.85,4.42,2.93,15.11,1.49,22.53-4.89,17.53-27.19,11.01-40.52,16.32-31.31,6.03-59.06-7.22-77.25-32.85-16.65-17.54-18.65-41.75-14.92-64.69,3.66-20.99,19.4-36.66,38.74-44.53,9.53-6.32,19.77-14.9,31.71-15.72Zm-21.4,48.7c-1.15,6.61,7.24,.8,10.41,.42,5.34-1.27,23.7-3.39,10.45-9.49-4.04-1.29-8.55-5.71-12.84-3.51-4.16,3.17-9,6.05-8.01,12.59Z"/><path class="cls-1" d="M184.26,208.44c-2.33-28.62,21.28-54.63,49.3-57.67,3.69-.41,7.36-.12,10.85,1.13,5.18,1.97,8.29-3.92,13.44-2.85,5.14-.57,17.5,4.28,16.69-4.34,1.48-7.26,3.56-19.88,12.49-20.55,7.58-2.07,12.86,3.26,14.57,10.09,8.82,20.55-1.22,43.45,0,65.12-1,15.61-.96,31.25-.01,46.87-.98,6.97,6.83,33.94-5.11,30.66-10.74-1.53-16.12-26.69-24.16-22.16-8.11,10.38-21.25,2.78-31.14,7.56-21.76,3.2-45.06-12.6-50.21-34.22-2.1-6.64-7.39-12.31-6.71-19.64Zm35.98,3.85c1.65,4.06,.1,11.77,5.85,12.35,12.21,1.15,27.6-7.5,25.1-21.06-1.52-8.88-13.37-11.47-21.08-11.94-8.76-.18-8.48,14.02-9.87,20.64Z"/><path class="cls-1" d="M385.72,165.44c-3.68,27.97-.02,59.34-5.53,87.45-2.62,10.38,3.01,33.57-15.8,27.66-14.47-7.31-22.3-22.28-31.49-34.86-7-9.97-.21-23.91-1.45-35.48,1.7-28.39-1.21-58.72,5.9-86.04,26.77-15.1,48.15,15.86,48.37,41.27Z"/><path class="cls-1" d="M384.51,64.02c-1.35,5.44-2.85,10.87-2.79,16.52-.2,15.52-21.11,10.42-28.76,3.46-7.85-6.31-28.77-14.56-19.61-26.94,11.75-16.84,51.62-21.26,51.16,6.97Z"/></g></g></svg>